<?xml version="1.0" encoding="iso-8859-1"?>
<!-- Generator: Adobe Illustrator 17.1.0, SVG Export Plug-In . SVG Version: 6.00 Build 0)  -->
<!DOCTYPE svg PUBLIC "-//W3C//DTD SVG 1.1//EN" "http://www.w3.org/Graphics/SVG/1.1/DTD/svg11.dtd">
<svg xmlns="http://www.w3.org/2000/svg" xmlns:xlink="http://www.w3.org/1999/xlink" version="1.1" id="Capa_1" x="0px" y="0px" viewBox="0 0 419.257 419.257" style="enable-background:new 0 0 419.257 419.257;" xml:space="preserve" width="512px" height="512px">
<path d="M339.851,238.887c-21.615,0-40.435,16.129-46.404,38.63h-3.106c-4.971,0-9,4.029-9,9s4.029,9,9,9h10.383  c0.044,0,0.089,0.001,0.134,0.001h77.985c0.045,0,0.09,0,0.134-0.001h10.383c4.971,0,9-4.029,9-9s-4.029-9-9-9h-3.106  C380.282,255.016,361.465,238.887,339.851,238.887z M312.37,277.517c4.918-12.256,15.544-20.63,27.48-20.63  c11.936,0,22.56,8.374,27.478,20.63H312.37z M344.12,163.665c22.715,0,41.195-18.481,41.195-41.198s-18.48-41.198-41.195-41.198  c-22.717,0-41.198,18.481-41.198,41.198S321.403,163.665,344.12,163.665z M344.12,99.269c12.79,0,23.195,10.406,23.195,23.198  s-10.405,23.198-23.195,23.198c-12.792,0-23.198-10.406-23.198-23.198S331.328,99.269,344.12,99.269z M11.708,286.517v-19.314  c0-3.667,2.225-6.967,5.623-8.343l268.674-108.739c0.797-0.337,1.621-0.551,2.45-0.647c1.343-0.159,2.676-0.008,3.917,0.41  c1.274,0.428,2.458,1.142,3.444,2.113c0.588,0.578,1.103,1.244,1.522,1.988l31.824,54.444l25.977-0.001c4.971,0,9.001,4.029,9.001,9  s-4.029,9-8.999,9L324,226.429c-3.199,0-6.157-1.697-7.771-4.458l-30.567-52.293L29.708,273.269v4.248l26.054,0c4.971,0,9,4.03,9,9  c0,4.971-4.03,9-9,9l-35.054-0.001C15.737,295.517,11.708,291.487,11.708,286.517z M419.257,328.988c0,4.971-4.029,9-9,9H9  c-4.971,0-9-4.029-9-9s4.029-9,9-9h401.257C415.228,319.988,419.257,324.017,419.257,328.988z" fill="#FFFFFF"/>
<g>
</g>
<g>
</g>
<g>
</g>
<g>
</g>
<g>
</g>
<g>
</g>
<g>
</g>
<g>
</g>
<g>
</g>
<g>
</g>
<g>
</g>
<g>
</g>
<g>
</g>
<g>
</g>
<g>
</g>
</svg>
