<?xml version="1.0" encoding="iso-8859-1"?>
<!-- Generator: Adobe Illustrator 17.1.0, SVG Export Plug-In . SVG Version: 6.00 Build 0)  -->
<!DOCTYPE svg PUBLIC "-//W3C//DTD SVG 1.1//EN" "http://www.w3.org/Graphics/SVG/1.1/DTD/svg11.dtd">
<svg xmlns="http://www.w3.org/2000/svg" xmlns:xlink="http://www.w3.org/1999/xlink" version="1.1" id="Capa_1" x="0px" y="0px" viewBox="0 0 419.255 419.255" style="enable-background:new 0 0 419.255 419.255;" xml:space="preserve" width="512px" height="512px">
<path d="M419.255,386.925c0,4.971-4.029,9-9,9H9c-4.971,0-9-4.029-9-9s4.029-9,9-9h401.255  C415.226,377.925,419.255,381.954,419.255,386.925z M307.794,71.077c22.716,0,41.197,18.481,41.197,41.197  c0,22.717-18.481,41.198-41.197,41.198c-22.718,0-41.199-18.481-41.199-41.198C266.595,89.559,285.077,71.077,307.794,71.077z   M307.794,89.077c-12.792,0-23.199,10.406-23.199,23.197c0,12.792,10.407,23.198,23.199,23.198  c12.791,0,23.197-10.406,23.197-23.198C330.992,99.484,320.585,89.077,307.794,89.077z M157.45,356.407h27.405  c0.013,0,0.026,0.002,0.039,0.002c4.971,0,9-4.029,9-9V193.315l79.084-131.306l45.859-21.529c4.5-2.112,6.435-7.472,4.323-11.971  c-2.112-4.501-7.476-6.437-11.972-4.322l-48.334,22.689c-1.613,0.758-2.966,1.978-3.886,3.504l-81.785,135.79  c-0.844,1.401-1.291,3.007-1.291,4.644v147.594H157.45c-4.971,0-9,4.029-9,9S152.479,356.407,157.45,356.407z M262.999,279.188  c1.701,1.471,3.796,2.19,5.881,2.19c2.523,0,5.033-1.056,6.813-3.115l30.229-34.979c2.234-2.585,2.812-6.213,1.49-9.364  l-29.486-70.332c-0.678-1.616-1.812-3-3.265-3.98l-18.618-12.567c-2.024-1.366-4.519-1.853-6.907-1.344s-4.469,1.966-5.763,4.038  l-28.762,46.072c-0.04,0.063-0.07,0.13-0.108,0.194c-0.092,0.156-0.181,0.313-0.264,0.475c-0.057,0.111-0.109,0.222-0.161,0.334  c-0.071,0.153-0.138,0.307-0.2,0.464c-0.051,0.128-0.097,0.256-0.141,0.386c-0.049,0.144-0.095,0.288-0.137,0.434  c-0.043,0.148-0.08,0.297-0.115,0.446c-0.03,0.131-0.059,0.263-0.083,0.396c-0.031,0.168-0.056,0.337-0.077,0.506  c-0.015,0.121-0.03,0.241-0.04,0.363c-0.016,0.183-0.023,0.364-0.028,0.546c-0.002,0.074-0.011,0.146-0.011,0.221v146.838  c0,4.971,4.029,9,9,9c0.013,0,0.026-0.002,0.039-0.002h27.408c4.971,0,9-4.029,9-9s-4.029-9-9-9h-18.446V203.15l22.457-35.973  l8.661,5.847l26.291,62.711l-26.582,30.759C258.824,270.254,259.238,275.938,262.999,279.188z" fill="#FFFFFF"/>
<g>
</g>
<g>
</g>
<g>
</g>
<g>
</g>
<g>
</g>
<g>
</g>
<g>
</g>
<g>
</g>
<g>
</g>
<g>
</g>
<g>
</g>
<g>
</g>
<g>
</g>
<g>
</g>
<g>
</g>
</svg>
