<?xml version="1.0" encoding="iso-8859-1"?>
<!-- Generator: Adobe Illustrator 17.1.0, SVG Export Plug-In . SVG Version: 6.00 Build 0)  -->
<!DOCTYPE svg PUBLIC "-//W3C//DTD SVG 1.1//EN" "http://www.w3.org/Graphics/SVG/1.1/DTD/svg11.dtd">
<svg xmlns="http://www.w3.org/2000/svg" xmlns:xlink="http://www.w3.org/1999/xlink" version="1.1" id="Capa_1" x="0px" y="0px" viewBox="0 0 419.257 419.257" style="enable-background:new 0 0 419.257 419.257;" xml:space="preserve" width="512px" height="512px">
<path d="M371.543,190.881c22.716,0,41.197-18.481,41.197-41.197c0-22.717-18.481-41.198-41.197-41.198  c-22.716,0-41.197,18.481-41.197,41.198C330.346,172.4,348.827,190.881,371.543,190.881z M371.543,126.486  c12.791,0,23.197,10.407,23.197,23.198c0,12.791-10.406,23.197-23.197,23.197c-12.791,0-23.197-10.406-23.197-23.197  C348.346,136.893,358.752,126.486,371.543,126.486z M28.31,218.942c0,28.844,23.467,52.311,52.313,52.311  c28.844,0,52.311-23.466,52.311-52.311c0-28.845-23.466-52.313-52.311-52.313C51.777,166.629,28.31,190.096,28.31,218.942z   M114.933,218.942c0,18.919-15.392,34.311-34.311,34.311c-18.92,0-34.313-15.392-34.313-34.311c0-18.92,15.393-34.313,34.313-34.313  C99.542,184.629,114.933,200.022,114.933,218.942z M28.045,151.429l14.086-17.722c2.059-2.591,5.373-3.841,8.629-3.26  l272.985,48.799c0.809,0.129,1.582,0.367,2.303,0.696c1.242,0.565,2.316,1.398,3.166,2.414c0.845,1.009,1.473,2.205,1.813,3.518  c0.001,0.003,0.001,0.006,0.002,0.009v0.001c0.2,0.773,0.298,1.581,0.283,2.405l-0.003,64.963h15.362c4.971,0,9,4.029,9,9  s-4.029,9-9,9h-24.362c-2.387,0-4.676-0.948-6.364-2.636c-1.688-1.688-2.636-3.977-2.636-6.364l0.003-66.585L52.88,149.112  l-10.743,13.517c-3.092,3.892-8.753,4.54-12.646,1.446C25.6,160.982,24.953,155.321,28.045,151.429z M419.257,301.771  c0,4.971-4.029,9-9,9H9c-4.971,0-9-4.029-9-9s4.029-9,9-9h401.257C415.228,292.771,419.257,296.8,419.257,301.771z" fill="#FFFFFF"/>
<g>
</g>
<g>
</g>
<g>
</g>
<g>
</g>
<g>
</g>
<g>
</g>
<g>
</g>
<g>
</g>
<g>
</g>
<g>
</g>
<g>
</g>
<g>
</g>
<g>
</g>
<g>
</g>
<g>
</g>
</svg>
